<?xml version="1.0" encoding="utf-8"?>
<!-- Generator: Adobe Illustrator 24.3.0, SVG Export Plug-In . SVG Version: 6.00 Build 0)  -->
<svg version="1.1" id="Calque_1" xmlns="http://www.w3.org/2000/svg" xmlns:xlink="http://www.w3.org/1999/xlink" x="0px" y="0px"
	 viewBox="0 0 8 6" style="enable-background:new 0 0 8 6;" xml:space="preserve">
<style type="text/css">
	.st0{fill:#80A28A;}
</style>
<g id="Calque_2_1_">
	<g id="Calque_1-2">
		<path class="st0" d="M8,4.5c0-0.8-0.6-1.4-1.4-1.4c-0.2,0-0.4,0-0.5,0.1C5.6,1.5,7.7,0.9,7.7,0.9L7,0C4.7,1.4,3.9,2.8,4.2,4.3
			C4.4,5.4,5.4,6.2,6.6,6C6.7,6,6.9,6,7,5.9l0,0C7.6,5.7,8,5.2,8,4.5z"/>
		<path class="st0" d="M2.5,3.1c-0.2,0-0.3,0-0.5,0.1C1.5,1.5,3.6,0.9,3.6,0.9L2.9,0C0.5,1.4-0.3,2.8,0.1,4.3C0.2,5.4,1.3,6.2,2.4,6
			C2.6,6,2.8,6,2.9,5.9l0,0c0.8-0.2,1.2-1,1-1.8C3.7,3.5,3.1,3.1,2.5,3.1L2.5,3.1z"/>
	</g>
</g>
</svg>
