<?xml version="1.0" encoding="utf-8"?>
<!-- Generator: Adobe Illustrator 24.3.0, SVG Export Plug-In . SVG Version: 6.00 Build 0)  -->
<svg version="1.1" id="Calque_1" xmlns="http://www.w3.org/2000/svg" xmlns:xlink="http://www.w3.org/1999/xlink" x="0px" y="0px"
	 viewBox="0 0 105.5 90.6" style="enable-background:new 0 0 105.5 90.6;" xml:space="preserve">
<style type="text/css">
	.st0{fill:#FFFFFF;}
	.st1{fill:#82A18B;}
</style>
<rect y="0.1" class="st0" width="105.5" height="90.6"/>
<g id="_x34_dhoHa.tif">
	<g>
		<path d="M62.4,90.7c13-2.9,23.2-10.5,30.5-22.9c2.7-4.5,4.4-9.4,5.1-14.8c-1.4-0.1-2.6-0.2-3.8-0.2C92,63.6,86.5,72.3,78,79.1
			c-8.2,6.4-17.6,8.8-27.9,9.1c-4.8,0.2-9.5,1-13.8,2.5H62.4z"/>
		<path d="M65.6,0.1H39.4c0.3,0.1,0.5,0.2,0.8,0.2C45.7,1.8,51.4,1.6,57,2.3c17.3,2,31.9,14.8,36.3,31.6c0.3,1.2,0.6,2.3,1,3.5
			c0.8-0.1,1.4-0.2,2-0.3c0.5-0.1,1.1-0.2,1.8-0.3c-1.6-9.3-5.6-17.2-11.8-23.9C80.2,6.6,73.3,2.4,65.6,0.1z"/>
	</g>
</g>
<circle class="st1" cx="96.6" cy="44.9" r="8.9"/>
</svg>
