<?xml version="1.0" encoding="utf-8"?>
<!-- Generator: Adobe Illustrator 24.3.0, SVG Export Plug-In . SVG Version: 6.00 Build 0)  -->
<svg version="1.1" id="Calque_1" xmlns="http://www.w3.org/2000/svg" xmlns:xlink="http://www.w3.org/1999/xlink" x="0px" y="0px"
	 viewBox="0 0 105.5 90.6" style="enable-background:new 0 0 105.5 90.6;" xml:space="preserve">
<style type="text/css">
	.st0{fill:#FFFFFF;}
	.st1{fill:#82A18B;}
</style>
<rect y="0.1" transform="matrix(-1 -1.224647e-16 1.224647e-16 -1 105.4886 90.7829)" class="st0" width="105.5" height="90.6"/>
<g id="_x34_dhoHa.tif">
	<g>
		<path d="M43.1,0.1C30.1,3,19.9,10.6,12.6,23.1c-2.7,4.5-4.4,9.4-5.1,14.8c1.4,0.1,2.6,0.2,3.8,0.2c2.2-11,7.6-19.7,16.2-26.4
			C35.7,5.3,45.2,3,55.4,2.6c4.8-0.2,9.5-1,13.8-2.5H43.1z"/>
		<path d="M39.9,90.7H66c-0.3-0.1-0.5-0.2-0.8-0.2C59.8,89,54,89.2,48.5,88.5c-17.3-2-31.9-14.8-36.3-31.6c-0.3-1.2-0.6-2.3-1-3.5
			c-0.8,0.1-1.4,0.2-2,0.3c-0.5,0.1-1.1,0.2-1.8,0.3c1.6,9.3,5.6,17.2,11.8,23.9C25.2,84.2,32.2,88.4,39.9,90.7z"/>
	</g>
</g>
<circle class="st1" cx="8.9" cy="45.8" r="8.9"/>
</svg>
